<?xml version="1.0" encoding="UTF-8"?>
<!DOCTYPE svg PUBLIC "-//W3C//DTD SVG 1.1//EN" "http://www.w3.org/Graphics/SVG/1.1/DTD/svg11.dtd">
<svg width="160mm" height="90mm" viewBox="0 0 16000 9000" version="1.1" xmlns="http://www.w3.org/2000/svg" xmlns:xlink="http://www.w3.org/1999/xlink" stroke-width="28.222" stroke-linejoin="round" xml:space="preserve">
 <path fill="rgb(255,255,255)" stroke="none" d="M 7987,8986 L -13,8986 -13,-13 15986,-13 15986,8986 7987,8986 Z"/>
 <path fill="none" stroke="rgb(179,179,179)" stroke-linejoin="round" d="M 7987,8806 L 307,8806 307,950 15666,950 15666,8806 7987,8806 Z"/>
 <path fill="none" stroke="rgb(179,179,179)" stroke-linejoin="round" d="M 15666,8805 L 307,8805"/>
 <path fill="none" stroke="rgb(179,179,179)" stroke-linejoin="round" d="M 15666,7682 L 307,7682"/>
 <path fill="none" stroke="rgb(179,179,179)" stroke-linejoin="round" d="M 15666,6560 L 307,6560"/>
 <path fill="none" stroke="rgb(179,179,179)" stroke-linejoin="round" d="M 15666,5437 L 307,5437"/>
 <path fill="none" stroke="rgb(179,179,179)" stroke-linejoin="round" d="M 15666,4316 L 307,4316"/>
 <path fill="none" stroke="rgb(179,179,179)" stroke-linejoin="round" d="M 15666,3193 L 307,3193"/>
 <path fill="none" stroke="rgb(179,179,179)" stroke-linejoin="round" d="M 15666,2071 L 307,2071"/>
 <path fill="none" stroke="rgb(179,179,179)" stroke-linejoin="round" d="M 15666,948 L 307,948"/>
 <path fill="rgb(255,66,14)" stroke="none" d="M 307,8805 L 319,8799 332,8793 344,8782 357,8782 369,8760 382,8760 394,8760 407,8760 419,8715 432,8715 444,8715 457,8715 469,8715 482,8715 494,8715 507,8715 519,8625 532,8625 544,8625 557,8625 569,8625 582,8625 594,8625 607,8625 619,8625 632,8625 644,8625 657,8625 669,8625 682,8625 694,8625 707,8625 719,8445 732,8445 744,8445 757,8445 769,8445 782,8445 794,8445 807,8445 819,8445 832,8445 844,8445 857,8445 869,8445 882,8445 894,8445 907,8445 919,8445 932,8445 944,8445 957,8445 969,8445 982,8445 994,8445 1007,8445 1019,8445 1032,8445 1044,8445 1057,8445 1069,8445 1082,8445 1095,8445 1107,8445 1120,8086 1132,8086 1145,8086 1157,8086 1170,8086 1182,8086 1195,8086 1207,8086 1220,8086 1232,8086 1245,8086 1257,8086 1270,8086 1282,8086 1295,8086 1307,8086 1320,8086 1332,8086 1345,8086 1357,8086 1370,8086 1382,8086 1395,8086 1407,8086 1420,8086 1432,8086 1445,8086 1457,8086 1470,8086 1482,8086 1495,8086 1507,8086 1520,8086 1532,8086 1545,8086 1557,8086 1570,8086 1582,8086 1595,8086 1607,8086 1620,8086 1632,8086 1645,8086 1657,8086 1670,8086 1682,8086 1695,8086 1707,8086 1720,8086 1732,8086 1745,8086 1757,8086 1770,8086 1782,8086 1795,8086 1807,8086 1820,8086 1832,8086 1845,8086 1858,8086 1870,8086 1883,8086 1895,8086 1908,8086 1920,7368 1933,7368 1945,7368 1958,7368 1970,7368 1983,7368 1995,7368 2008,7368 2020,7368 2033,7368 2045,7368 2058,7368 2070,7368 2083,7368 2095,7368 2108,7368 2120,7368 2133,7368 2145,7368 2158,7368 2170,7368 2183,7368 2195,7368 2208,7368 2220,7368 2233,7368 2245,7368 2258,7368 2270,7368 2283,7368 2295,7368 2308,7368 2320,7368 2333,7368 2345,7368 2358,7368 2370,7368 2383,7368 2395,7368 2408,7368 2420,7368 2433,7368 2445,7368 2458,7368 2470,7368 2483,7368 2495,7368 2508,7368 2520,7368 2533,7368 2545,7368 2558,7368 2570,7368 2583,7368 2595,7368 2608,7368 2621,7368 2633,7368 2646,7368 2658,7368 2671,7368 2683,7368 2696,7368 2708,7368 2721,7368 2733,7368 2746,7368 2758,7368 2771,7368 2783,7368 2796,7368 2808,7368 2821,7368 2833,7368 2846,7368 2858,7368 2871,7368 2883,7368 2896,7368 2908,7368 2921,7368 2933,7368 2946,7368 2958,7368 2971,7368 2983,7368 2996,7368 3008,7368 3021,7368 3033,7368 3046,7368 3058,7368 3071,7368 3083,7368 3096,7368 3108,7368 3121,7368 3133,7368 3146,7368 3158,7368 3171,7368 3183,7368 3196,7368 3208,7368 3221,7368 3233,7368 3246,7368 3258,7368 3271,7368 3283,7368 3296,7368 3308,7368 3321,7368 3333,7368 3346,7368 3358,7368 3371,7368 3384,7368 3396,7368 3409,7368 3421,7368 3434,7368 3446,7368 3459,7368 3471,7368 3484,7368 3496,7368 3509,7368 3521,5931 3534,5931 3546,5931 3559,5931 3571,5931 3584,5931 3596,5931 3609,5931 3621,5931 3634,5931 3646,5931 3659,5931 3671,5931 3684,5931 3696,5931 3709,5931 3721,5931 3734,5931 3746,5931 3759,5931 3771,5931 3784,5931 3796,5931 3809,5931 3821,5931 3834,5931 3846,5931 3859,5931 3871,5931 3884,5931 3896,5931 3909,5931 3921,5931 3934,5931 3946,5931 3959,5931 3971,5931 3984,5931 3996,5931 4009,5931 4021,5931 4034,5931 4046,5931 4059,5931 4071,5931 4084,5931 4096,5931 4109,5931 4121,5931 4134,5931 4147,5931 4159,5931 4172,5931 4184,5931 4197,5931 4209,5931 4222,5931 4234,5931 4247,5931 4259,5931 4272,5931 4284,5931 4297,5931 4309,5931 4322,5931 4334,5931 4347,5931 4359,5931 4372,5931 4384,5931 4397,5931 4409,5931 4422,5931 4434,5931 4447,5931 4459,5931 4472,5931 4484,5931 4497,5931 4509,5931 4522,5931 4534,5931 4547,5931 4559,5931 4572,5931 4584,5931 4597,5931 4609,5931 4622,5931 4634,5931 4647,5931 4659,5931 4672,5931 4684,5931 4697,5931 4709,5931 4722,5931 4734,5931 4747,5931 4759,5931 4772,5931 4784,5931 4797,5931 4809,5931 4822,5931 4834,5931 4847,5931 4859,5931 4872,5931 4884,5931 4897,5931 4909,5931 4922,5931 4935,5931 4947,5931 4960,5931 4972,5931 4985,5931 4997,5931 5010,5931 5022,5931 5035,5931 5047,5931 5060,5931 5072,5931 5085,5931 5097,5931 5110,5931 5122,5931 5135,5931 5147,5931 5160,5931 5172,5931 5185,5931 5197,5931 5210,5931 5222,5931 5235,5931 5247,5931 5260,5931 5272,5931 5285,5931 5297,5931 5310,5931 5322,5931 5335,5931 5347,5931 5360,5931 5372,5931 5385,5931 5397,5931 5410,5931 5422,5931 5435,5931 5447,5931 5460,5931 5472,5931 5485,5931 5497,5931 5510,5931 5522,5931 5535,5931 5547,5931 5560,5931 5572,5931 5585,5931 5597,5931 5610,5931 5622,5931 5635,5931 5647,5931 5660,5931 5672,5931 5685,5931 5698,5931 5710,5931 5723,5931 5735,5931 5748,5931 5760,5931 5773,5931 5785,5931 5798,5931 5810,5931 5823,5931 5835,5931 5848,5931 5860,5931 5873,5931 5885,5931 5898,5931 5910,5931 5923,5931 5935,5931 5948,5931 5960,5931 5973,5931 5985,5931 5998,5931 6010,5931 6023,5931 6035,5931 6048,5931 6060,5931 6073,5931 6085,5931 6098,5931 6110,5931 6123,5931 6135,5931 6148,5931 6160,5931 6173,5931 6185,5931 6198,5931 6210,5931 6223,5931 6235,5931 6248,5931 6260,5931 6273,5931 6285,5931 6298,5931 6310,5931 6323,5931 6335,5931 6348,5931 6360,5931 6373,5931 6385,5931 6398,5931 6410,5931 6423,5931 6435,5931 6448,5931 6461,5931 6473,5931 6486,5931 6498,5931 6511,5931 6523,5931 6536,5931 6548,5931 6561,5931 6573,5931 6586,5931 6598,5931 6611,5931 6623,5931 6636,5931 6648,5931 6661,5931 6673,5931 6686,5931 6698,5931 6711,5931 6723,4046 6736,4046 6748,4046 6761,4046 6773,4046 6786,4046 6798,4046 6811,4046 6823,4046 6836,4046 6848,4046 6861,4046 6873,4046 6886,4046 6898,4046 6911,4046 6923,4046 6936,4046 6948,4046 6961,4046 6973,4046 6986,4046 6998,4046 7011,4046 7023,4046 7036,4046 7048,4046 7061,4046 7073,4046 7086,4046 7098,4046 7111,4046 7123,4046 7136,4046 7148,4046 7161,4046 7173,4046 7186,4046 7198,4046 7211,4046 7224,4046 7236,4046 7249,4046 7261,4046 7274,4046 7286,4046 7299,4046 7311,4046 7324,4046 7336,4046 7349,4046 7361,4046 7374,4046 7386,4046 7399,4046 7411,4046 7424,4046 7436,4046 7449,4046 7461,4046 7474,4046 7486,4046 7499,4046 7511,4046 7524,4046 7536,4046 7549,4046 7561,4046 7574,4046 7586,4046 7599,4046 7611,4046 7624,4046 7636,4046 7649,4046 7661,4046 7674,4046 7686,4046 7699,4046 7711,4046 7724,4046 7736,4046 7749,4046 7761,4046 7774,4046 7786,4046 7799,4046 7811,4046 7824,4046 7836,4046 7849,4046 7861,4046 7874,4046 7886,4046 7899,4046 7911,4046 7924,4046 7936,4046 7949,4046 7961,4046 7974,4046 7987,4046 7998,4046 8011,4046 8023,4046 8036,4046 8048,4046 8061,4046 8073,4046 8086,4046 8098,4046 8111,4046 8123,4046 8136,4046 8148,4046 8161,4046 8173,4046 8186,4046 8198,4046 8211,4046 8223,4046 8236,4046 8248,4046 8261,4046 8273,4046 8286,4046 8298,4046 8311,4046 8323,4046 8336,4046 8348,4046 8361,4046 8373,4046 8386,4046 8398,4046 8411,4046 8423,4046 8436,4046 8448,4046 8461,4046 8473,4046 8486,4046 8498,4046 8511,4046 8523,4046 8536,4046 8548,4046 8561,4046 8573,4046 8586,4046 8598,4046 8611,4046 8623,4046 8636,4046 8648,4046 8661,4046 8673,4046 8686,4046 8698,4046 8711,4046 8723,4046 8736,4046 8748,4046 8761,4046 8774,4046 8786,4046 8799,4046 8811,4046 8824,4046 8836,4046 8849,4046 8861,4046 8874,4046 8886,4046 8899,4046 8911,4046 8924,4046 8936,4046 8949,4046 8961,4046 8974,4046 8986,4046 8999,4046 9011,4046 9024,4046 9036,4046 9049,4046 9061,4046 9074,4046 9086,4046 9099,4046 9111,4046 9124,4046 9136,4046 9149,4046 9161,4046 9174,4046 9186,4046 9199,4046 9211,4046 9224,4046 9236,4046 9249,4046 9261,4046 9274,4046 9286,4046 9299,4046 9311,4046 9324,4046 9336,4046 9349,4046 9361,4046 9374,4046 9386,4046 9399,4046 9411,4046 9424,4046 9436,4046 9449,4046 9461,4046 9474,4046 9486,4046 9499,4046 9511,4046 9524,4046 9537,4046 9549,4046 9562,4046 9574,4046 9587,4046 9599,4046 9612,4046 9624,4046 9637,4046 9649,4046 9662,4046 9674,4046 9687,4046 9699,4046 9712,4046 9724,4046 9737,4046 9749,4046 9762,4046 9774,4046 9787,4046 9799,4046 9812,4046 9824,4046 9837,4046 9849,4046 9862,4046 9874,4046 9887,4046 9899,4046 9912,4046 9924,4046 9937,4046 9949,4046 9962,4046 9974,4046 9987,4046 9999,4046 10012,4046 10024,4046 10037,4046 10049,4046 10062,4046 10074,4046 10087,4046 10099,4046 10112,4046 10124,4046 10137,4046 10149,4046 10162,4046 10174,4046 10187,4046 10199,4046 10212,4046 10224,4046 10237,4046 10249,4046 10262,4046 10274,4046 10287,4046 10300,4046 10312,4046 10325,4046 10337,4046 10350,4046 10362,4046 10375,4046 10387,4046 10400,4046 10412,4046 10425,4046 10437,4046 10450,4046 10462,4046 10475,4046 10487,4046 10500,4046 10512,4046 10525,4046 10537,4046 10550,4046 10562,4046 10575,4046 10587,4046 10600,4046 10612,4046 10625,4046 10637,4046 10650,4046 10662,4046 10675,4046 10687,4046 10700,4046 10712,4046 10725,4046 10737,4046 10750,4046 10762,4046 10775,4046 10787,4046 10800,4046 10812,4046 10825,4046 10837,4046 10850,4046 10862,4046 10875,4046 10887,4046 10900,4046 10912,4046 10925,1622 10937,1622 10950,1622 10962,1622 10975,1622 10987,1622 11000,1622 11012,1622 11025,1622 11037,1622 11050,1622 11063,1622 11075,1622 11088,1622 11100,1622 11113,1622 11125,1622 11138,1622 11150,1622 11163,1622 11175,1622 11188,1622 11200,1622 11213,1622 11225,1622 11238,1622 11250,1622 11263,1622 11275,1622 11288,1622 11300,1622 11313,1622 11325,1622 11338,1622 11350,1622 11363,1622 11375,1622 11388,1622 11400,1622 11413,1622 11425,1622 11438,1622 11450,1622 11463,1622 11475,1622 11488,1622 11500,1622 11513,1622 11525,1622 11538,1622 11550,1622 11563,1622 11575,1622 11588,1622 11600,1622 11613,1622 11625,1622 11638,1622 11650,1622 11663,1622 11675,1622 11688,1622 11700,1622 11713,1622 11725,1622 11738,1622 11750,1622 11763,1622 11775,1622 11788,1622 11800,1622 11813,1622 11826,1622 11838,1622 11851,1622 11863,1622 11876,1622 11888,1622 11901,1622 11913,1622 11926,1622 11938,1622 11951,1622 11963,1622 11976,1622 11988,1622 12001,1622 12013,1622 12026,1622 12038,1622 12051,1622 12063,1622 12076,1622 12088,1622 12101,1622 12113,1622 12126,1622 12138,1622 12151,1622 12163,1622 12176,1622 12188,1622 12201,1622 12213,1622 12226,1622 12238,1622 12251,1622 12263,1622 12276,1622 12288,1622 12301,1622 12313,1622 12326,1622 12338,1622 12351,1622 12363,1622 12376,1622 12388,1622 12401,1622 12413,1622 12426,1622 12438,1622 12451,1622 12463,1622 12476,1622 12488,1622 12501,1622 12513,1622 12526,1622 12538,1622 12551,1622 12563,1622 12576,1622 12588,1622 12601,1622 12614,1622 12626,1622 12639,1622 12651,1622 12664,1622 12676,1622 12689,1622 12701,1622 12714,1622 12726,1622 12739,1622 12751,1622 12764,1622 12776,1622 12789,1622 12801,1622 12814,1622 12826,1622 12839,1622 12851,1622 12864,1622 12876,1622 12889,1622 12901,1622 12914,1622 12926,1622 12939,1622 12951,1622 12964,1622 12976,1622 12989,1622 13001,1622 13014,1622 13026,1622 13039,1622 13051,1622 13064,1622 13076,1622 13089,1622 13101,1622 13114,1622 13126,1622 13139,1622 13151,1622 13164,1622 13176,1622 13189,1622 13201,1622 13214,1622 13226,1622 13239,1622 13251,1622 13264,1622 13276,1622 13289,1622 13301,1622 13314,1622 13326,1622 13339,1622 13351,1622 13364,1622 13377,1622 13389,1622 13402,1622 13414,1622 13427,1622 13439,1622 13452,1622 13464,1622 13477,1622 13489,1622 13502,1622 13514,1622 13527,1622 13539,1622 13552,1622 13564,1622 13577,1622 13589,1622 13602,1622 13614,1622 13627,1622 13639,1622 13652,1622 13664,1622 13677,1622 13689,1622 13702,1622 13714,1622 13727,1622 13739,1622 13752,1622 13764,1622 13777,1622 13789,1622 13802,1622 13814,1622 13827,1622 13839,1622 13852,1622 13864,1622 13877,1622 13889,1622 13902,1622 13914,1622 13927,1622 13939,1622 13952,1622 13964,1622 13977,1622 13989,1622 14002,1622 14014,1622 14027,1622 14039,1622 14052,1622 14064,1622 14077,1622 14089,1622 14102,1622 14114,1622 14127,1622 14140,1622 14152,1622 14165,1622 14177,1622 14190,1622 14202,1622 14215,1622 14227,1622 14240,1622 14252,1622 14265,1622 14277,1622 14290,1622 14302,1622 14315,1622 14327,1622 14340,1622 14352,1622 14365,1622 14377,1622 14390,1622 14402,1622 14415,1622 14427,1622 14440,1622 14452,1622 14465,1622 14477,1622 14490,1622 14502,1622 14515,1622 14527,1622 14540,1622 14552,1622 14565,1622 14577,1622 14590,1622 14602,1622 14615,1622 14627,1622 14640,1622 14652,1622 14665,1622 14677,1622 14690,1622 14702,1622 14715,1622 14727,1622 14740,1622 14752,1622 14765,1622 14777,1622 14790,1622 14802,1622 14815,1622 14827,1622 14840,1622 14852,1622 14865,1622 14877,1622 14890,1622 14903,1622 14915,1622 14928,1622 14940,1622 14953,1622 14965,1622 14978,1622 14990,1622 15003,1622 15015,1622 15028,1622 15040,1622 15053,1622 15065,1622 15078,1622 15090,1622 15103,1622 15115,1622 15128,1622 15140,1622 15153,1622 15165,1622 15178,1622 15190,1622 15203,1622 15215,1622 15228,1622 15240,1622 15253,1622 15265,1622 15278,1622 15290,1622 15303,1622 15315,1622 15328,1622 15340,1622 15353,1622 15365,1622 15378,1622 15390,1622 15403,1622 15415,1622 15428,1622 15440,1622 15453,1622 15465,1622 15478,1622 15490,1622 15503,1622 15515,1622 15528,1622 15540,1622 15553,1622 15565,1622 15578,1622 15590,1622 15603,1622 15615,1622 15628,1622 15640,1622 15653,1622 15666,1622 15666,8805 307,8805 Z"/>
 <path fill="rgb(0,69,134)" stroke="none" d="M 307,8805 L 319,8799 332,8793 344,8788 357,8782 369,8776 382,8771 394,8765 407,8760 419,8754 432,8748 444,8743 457,8737 469,8732 482,8726 494,8720 507,8715 519,8709 532,8703 544,8698 557,8692 569,8687 582,8681 594,8675 607,8670 619,8664 632,8659 644,8653 657,8647 669,8642 682,8636 694,8631 707,8625 719,8619 732,8614 744,8608 757,8602 769,8597 782,8591 794,8586 807,8580 819,8574 832,8569 844,8563 857,8558 869,8552 882,8546 894,8541 907,8535 919,8530 932,8524 944,8518 957,8513 969,8507 982,8501 994,8496 1007,8490 1019,8485 1032,8479 1044,8473 1057,8468 1069,8462 1082,8457 1095,8451 1107,8445 1120,8440 1132,8434 1145,8428 1157,8423 1170,8417 1182,8412 1195,8406 1207,8400 1220,8395 1232,8389 1245,8384 1257,8378 1270,8372 1282,8367 1295,8361 1307,8356 1320,8350 1332,8344 1345,8339 1357,8333 1370,8327 1382,8322 1395,8316 1407,8311 1420,8305 1432,8299 1445,8294 1457,8288 1470,8283 1482,8277 1495,8271 1507,8266 1520,8260 1532,8255 1545,8249 1557,8243 1570,8238 1582,8232 1595,8226 1607,8221 1620,8215 1632,8210 1645,8204 1657,8198 1670,8193 1682,8187 1695,8182 1707,8176 1720,8170 1732,8165 1745,8159 1757,8153 1770,8148 1782,8142 1795,8137 1807,8131 1820,8125 1832,8120 1845,8114 1858,8109 1870,8103 1883,8097 1895,8092 1908,8086 1920,8081 1933,8075 1945,8069 1958,8064 1970,8058 1983,8052 1995,8047 2008,8041 2020,8036 2033,8030 2045,8024 2058,8019 2070,8013 2083,8008 2095,8002 2108,7996 2120,7991 2133,7985 2145,7980 2158,7974 2170,7968 2183,7963 2195,7957 2208,7951 2220,7946 2233,7940 2245,7935 2258,7929 2270,7923 2283,7918 2295,7912 2308,7907 2320,7901 2333,7895 2345,7890 2358,7884 2370,7878 2383,7873 2395,7867 2408,7862 2420,7856 2433,7850 2445,7845 2458,7839 2470,7834 2483,7828 2495,7822 2508,7817 2520,7811 2533,7806 2545,7800 2558,7794 2570,7789 2583,7783 2595,7777 2608,7772 2621,7766 2633,7761 2646,7755 2658,7749 2671,7744 2683,7738 2696,7733 2708,7727 2721,7721 2733,7716 2746,7710 2758,7705 2771,7699 2783,7693 2796,7688 2808,7682 2821,7676 2833,7671 2846,7665 2858,7660 2871,7654 2883,7648 2896,7643 2908,7637 2921,7632 2933,7626 2946,7620 2958,7615 2971,7609 2983,7604 2996,7598 3008,7592 3021,7587 3033,7581 3046,7575 3058,7570 3071,7564 3083,7559 3096,7553 3108,7547 3121,7542 3133,7536 3146,7531 3158,7525 3171,7519 3183,7514 3196,7508 3208,7502 3221,7497 3233,7491 3246,7486 3258,7480 3271,7474 3283,7469 3296,7463 3308,7458 3321,7452 3333,7446 3346,7441 3358,7435 3371,7430 3384,7424 3396,7418 3409,7413 3421,7407 3434,7401 3446,7396 3459,7390 3471,7385 3484,7379 3496,7373 3509,7368 3521,7362 3534,7357 3546,7351 3559,7345 3571,7340 3584,7334 3596,7329 3609,7323 3621,7317 3634,7312 3646,7306 3659,7300 3671,7295 3684,7289 3696,7284 3709,7278 3721,7272 3734,7267 3746,7261 3759,7256 3771,7250 3784,7244 3796,7239 3809,7233 3821,7227 3834,7222 3846,7216 3859,7211 3871,7205 3884,7199 3896,7194 3909,7188 3921,7183 3934,7177 3946,7171 3959,7166 3971,7160 3984,7155 3996,7149 4009,7143 4021,7138 4034,7132 4046,7126 4059,7121 4071,7115 4084,7110 4096,7104 4109,7098 4121,7093 4134,7087 4147,7082 4159,7076 4172,7070 4184,7065 4197,7059 4209,7054 4222,7048 4234,7042 4247,7037 4259,7031 4272,7025 4284,7020 4297,7014 4309,7009 4322,7003 4334,6997 4347,6992 4359,6986 4372,6981 4384,6975 4397,6969 4409,6964 4422,6958 4434,6952 4447,6947 4459,6941 4472,6936 4484,6930 4497,6924 4509,6919 4522,6913 4534,6908 4547,6902 4559,6896 4572,6891 4584,6885 4597,6880 4609,6874 4622,6868 4634,6863 4647,6857 4659,6851 4672,6846 4684,6840 4697,6835 4709,6829 4722,6823 4734,6818 4747,6812 4759,6807 4772,6801 4784,6795 4797,6790 4809,6784 4822,6779 4834,6773 4847,6767 4859,6762 4872,6756 4884,6750 4897,6745 4909,6739 4922,6734 4935,6728 4947,6722 4960,6717 4972,6711 4985,6706 4997,6700 5010,6694 5022,6689 5035,6683 5047,6677 5060,6672 5072,6666 5085,6661 5097,6655 5110,6649 5122,6644 5135,6638 5147,6633 5160,6627 5172,6621 5185,6616 5197,6610 5210,6605 5222,6599 5235,6593 5247,6588 5260,6582 5272,6576 5285,6571 5297,6565 5310,6560 5322,6554 5335,6548 5347,6543 5360,6537 5372,6532 5385,6526 5397,6520 5410,6515 5422,6509 5435,6504 5447,6498 5460,6492 5472,6487 5485,6481 5497,6475 5510,6470 5522,6464 5535,6459 5547,6453 5560,6447 5572,6442 5585,6436 5597,6431 5610,6425 5622,6419 5635,6414 5647,6408 5660,6403 5672,6397 5685,6391 5698,6386 5710,6380 5723,6374 5735,6369 5748,6363 5760,6358 5773,6352 5785,6346 5798,6341 5810,6335 5823,6330 5835,6324 5848,6318 5860,6313 5873,6307 5885,6301 5898,6296 5910,6290 5923,6285 5935,6279 5948,6273 5960,6268 5973,6262 5985,6257 5998,6251 6010,6245 6023,6240 6035,6234 6048,6229 6060,6223 6073,6217 6085,6212 6098,6206 6110,6200 6123,6195 6135,6189 6148,6184 6160,6178 6173,6172 6185,6167 6198,6161 6210,6156 6223,6150 6235,6144 6248,6139 6260,6133 6273,6128 6285,6122 6298,6116 6310,6111 6323,6105 6335,6099 6348,6094 6360,6088 6373,6083 6385,6077 6398,6071 6410,6066 6423,6060 6435,6055 6448,6049 6461,6043 6473,6038 6486,6032 6498,6026 6511,6021 6523,6015 6536,6010 6548,6004 6561,5998 6573,5993 6586,5987 6598,5982 6611,5976 6623,5970 6636,5965 6648,5959 6661,5954 6673,5948 6686,5942 6698,5937 6711,5931 6723,5925 6736,5920 6748,5914 6761,5909 6773,5903 6786,5897 6798,5892 6811,5886 6823,5881 6836,5875 6848,5869 6861,5864 6873,5858 6886,5853 6898,5847 6911,5841 6923,5836 6936,5830 6948,5824 6961,5819 6973,5813 6986,5808 6998,5802 7011,5796 7023,5791 7036,5785 7048,5780 7061,5774 7073,5768 7086,5763 7098,5757 7111,5751 7123,5746 7136,5740 7148,5735 7161,5729 7173,5723 7186,5718 7198,5712 7211,5707 7224,5701 7236,5695 7249,5690 7261,5684 7274,5679 7286,5673 7299,5667 7311,5662 7324,5656 7336,5650 7349,5645 7361,5639 7374,5634 7386,5628 7399,5622 7411,5617 7424,5611 7436,5606 7449,5600 7461,5594 7474,5589 7486,5583 7499,5578 7511,5572 7524,5566 7536,5561 7549,5555 7561,5549 7574,5544 7586,5538 7599,5533 7611,5527 7624,5521 7636,5516 7649,5510 7661,5505 7674,5499 7686,5493 7699,5488 7711,5482 7724,5476 7736,5471 7749,5465 7761,5460 7774,5454 7786,5448 7799,5443 7811,5437 7824,5432 7836,5426 7849,5420 7861,5415 7874,5409 7886,5404 7899,5398 7911,5392 7924,5387 7936,5381 7949,5375 7961,5370 7974,5364 7987,5359 7998,5353 8011,5347 8023,5342 8036,5336 8048,5331 8061,5325 8073,5319 8086,5314 8098,5308 8111,5303 8123,5297 8136,5291 8148,5286 8161,5280 8173,5274 8186,5269 8198,5263 8211,5258 8223,5252 8236,5246 8248,5241 8261,5235 8273,5230 8286,5224 8298,5218 8311,5213 8323,5207 8336,5202 8348,5196 8361,5190 8373,5185 8386,5179 8398,5173 8411,5168 8423,5162 8436,5157 8448,5151 8461,5145 8473,5140 8486,5134 8498,5129 8511,5123 8523,5117 8536,5112 8548,5106 8561,5100 8573,5095 8586,5089 8598,5084 8611,5078 8623,5072 8636,5067 8648,5061 8661,5056 8673,5050 8686,5044 8698,5039 8711,5033 8723,5028 8736,5022 8748,5016 8761,5011 8774,5005 8786,4999 8799,4994 8811,4988 8824,4983 8836,4977 8849,4971 8861,4966 8874,4960 8886,4955 8899,4949 8911,4943 8924,4938 8936,4932 8949,4927 8961,4921 8974,4915 8986,4910 8999,4904 9011,4898 9024,4893 9036,4887 9049,4882 9061,4876 9074,4870 9086,4865 9099,4859 9111,4854 9124,4848 9136,4842 9149,4837 9161,4831 9174,4825 9186,4820 9199,4814 9211,4809 9224,4803 9236,4797 9249,4792 9261,4786 9274,4781 9286,4775 9299,4769 9311,4764 9324,4758 9336,4753 9349,4747 9361,4741 9374,4736 9386,4730 9399,4724 9411,4719 9424,4713 9436,4708 9449,4702 9461,4696 9474,4691 9486,4685 9499,4680 9511,4674 9524,4668 9537,4663 9549,4657 9562,4652 9574,4646 9587,4640 9599,4635 9612,4629 9624,4623 9637,4618 9649,4612 9662,4607 9674,4601 9687,4595 9699,4590 9712,4584 9724,4579 9737,4573 9749,4567 9762,4562 9774,4556 9787,4550 9799,4545 9812,4539 9824,4534 9837,4528 9849,4522 9862,4517 9874,4511 9887,4506 9899,4500 9912,4494 9924,4489 9937,4484 9949,4479 9962,4473 9974,4467 9987,4462 9999,4456 10012,4450 10024,4445 10037,4439 10049,4434 10062,4428 10074,4422 10087,4417 10099,4411 10112,4406 10124,4400 10137,4394 10149,4389 10162,4383 10174,4378 10187,4372 10199,4366 10212,4361 10224,4355 10237,4349 10249,4344 10262,4338 10274,4333 10287,4327 10300,4321 10312,4316 10325,4310 10337,4305 10350,4299 10362,4293 10375,4288 10387,4282 10400,4277 10412,4271 10425,4265 10437,4260 10450,4254 10462,4248 10475,4243 10487,4237 10500,4232 10512,4226 10525,4220 10537,4215 10550,4209 10562,4204 10575,4198 10587,4192 10600,4187 10612,4181 10625,4175 10637,4170 10650,4164 10662,4159 10675,4153 10687,4147 10700,4142 10712,4136 10725,4131 10737,4125 10750,4119 10762,4114 10775,4108 10787,4103 10800,4097 10812,4091 10825,4086 10837,4080 10850,4074 10862,4069 10875,4063 10887,4058 10900,4052 10912,4046 10925,4041 10937,4035 10950,4030 10962,4024 10975,4018 10987,4013 11000,4007 11012,4002 11025,3996 11037,3990 11050,3985 11063,3979 11075,3973 11088,3968 11100,3962 11113,3957 11125,3951 11138,3945 11150,3940 11163,3934 11175,3929 11188,3923 11200,3917 11213,3912 11225,3906 11238,3900 11250,3895 11263,3889 11275,3884 11288,3878 11300,3872 11313,3867 11325,3861 11338,3856 11350,3850 11363,3844 11375,3839 11388,3833 11400,3828 11413,3822 11425,3816 11438,3811 11450,3805 11463,3799 11475,3794 11488,3788 11500,3783 11513,3777 11525,3771 11538,3766 11550,3760 11563,3755 11575,3749 11588,3743 11600,3738 11613,3732 11625,3727 11638,3721 11650,3715 11663,3710 11675,3704 11688,3698 11700,3693 11713,3687 11725,3682 11738,3676 11750,3670 11763,3665 11775,3659 11788,3654 11800,3648 11813,3642 11826,3637 11838,3631 11851,3625 11863,3620 11876,3614 11888,3609 11901,3603 11913,3597 11926,3592 11938,3586 11951,3581 11963,3575 11976,3569 11988,3564 12001,3558 12013,3553 12026,3547 12038,3541 12051,3536 12063,3530 12076,3524 12088,3519 12101,3513 12113,3508 12126,3502 12138,3496 12151,3491 12163,3485 12176,3480 12188,3474 12201,3468 12213,3463 12226,3457 12238,3452 12251,3446 12263,3440 12276,3435 12288,3429 12301,3423 12313,3418 12326,3412 12338,3407 12351,3401 12363,3395 12376,3390 12388,3384 12401,3379 12413,3373 12426,3367 12438,3362 12451,3356 12463,3350 12476,3345 12488,3339 12501,3334 12513,3328 12526,3322 12538,3317 12551,3311 12563,3306 12576,3300 12588,3294 12601,3289 12614,3283 12626,3278 12639,3272 12651,3266 12664,3261 12676,3255 12689,3249 12701,3244 12714,3238 12726,3233 12739,3227 12751,3221 12764,3216 12776,3210 12789,3205 12801,3199 12814,3193 12826,3188 12839,3182 12851,3177 12864,3171 12876,3165 12889,3160 12901,3154 12914,3148 12926,3143 12939,3137 12951,3132 12964,3126 12976,3120 12989,3115 13001,3109 13014,3104 13026,3098 13039,3092 13051,3087 13064,3081 13076,3076 13089,3070 13101,3064 13114,3059 13126,3053 13139,3047 13151,3042 13164,3036 13176,3031 13189,3025 13201,3019 13214,3014 13226,3008 13239,3003 13251,2997 13264,2991 13276,2986 13289,2980 13301,2974 13314,2969 13326,2963 13339,2958 13351,2952 13364,2946 13377,2941 13389,2935 13402,2930 13414,2924 13427,2918 13439,2913 13452,2907 13464,2902 13477,2896 13489,2890 13502,2885 13514,2879 13527,2873 13539,2868 13552,2862 13564,2857 13577,2851 13589,2845 13602,2840 13614,2834 13627,2829 13639,2823 13652,2817 13664,2812 13677,2806 13689,2801 13702,2795 13714,2789 13727,2784 13739,2778 13752,2772 13764,2767 13777,2761 13789,2756 13802,2750 13814,2744 13827,2739 13839,2733 13852,2728 13864,2722 13877,2716 13889,2711 13902,2705 13914,2699 13927,2694 13939,2688 13952,2683 13964,2677 13977,2671 13989,2666 14002,2660 14014,2655 14027,2649 14039,2643 14052,2638 14064,2632 14077,2627 14089,2621 14102,2615 14114,2610 14127,2604 14140,2598 14152,2593 14165,2587 14177,2582 14190,2576 14202,2570 14215,2565 14227,2559 14240,2554 14252,2548 14265,2542 14277,2537 14290,2531 14302,2526 14315,2520 14327,2514 14340,2509 14352,2503 14365,2497 14377,2492 14390,2486 14402,2481 14415,2475 14427,2469 14440,2464 14452,2458 14465,2453 14477,2447 14490,2441 14502,2436 14515,2430 14527,2424 14540,2419 14552,2413 14565,2408 14577,2402 14590,2396 14602,2391 14615,2385 14627,2380 14640,2374 14652,2368 14665,2363 14677,2357 14690,2352 14702,2346 14715,2340 14727,2335 14740,2329 14752,2323 14765,2318 14777,2312 14790,2307 14802,2301 14815,2295 14827,2290 14840,2284 14852,2279 14865,2273 14877,2267 14890,2262 14903,2256 14915,2251 14928,2245 14940,2239 14953,2234 14965,2228 14978,2222 14990,2217 15003,2211 15015,2206 15028,2200 15040,2194 15053,2189 15065,2183 15078,2178 15090,2172 15103,2166 15115,2161 15128,2155 15140,2149 15153,2144 15165,2138 15178,2133 15190,2127 15203,2121 15215,2116 15228,2110 15240,2105 15253,2099 15265,2093 15278,2088 15290,2082 15303,2077 15315,2071 15328,2065 15340,2060 15353,2054 15365,2048 15378,2043 15390,2037 15403,2032 15415,2026 15428,2020 15440,2015 15453,2009 15465,2004 15478,1998 15490,1992 15503,1987 15515,1981 15528,1976 15540,1970 15553,1964 15565,1959 15578,1953 15590,1947 15603,1942 15615,1936 15628,1931 15640,1925 15653,1919 15666,1914 15666,8805 307,8805 Z"/>
 <path fill="rgb(0,69,134)" stroke="none" d="M 7160,576 L 7055,576 7055,365 7266,365 7266,576 7160,576 Z"/>
 <path fill="rgb(255,66,14)" stroke="none" d="M 8155,576 L 8049,576 8049,365 8260,365 8260,576 8155,576 Z"/>
 <text class="SVGTextShape"><tspan class="TextParagraph" font-family="Liberation Sans, sans-serif" font-size="353px" font-weight="400"><tspan class="TextPosition" x="7366" y="590"><tspan fill="rgb(0,0,0)" stroke="none" style="white-space: pre">len</tspan></tspan></tspan></text>
 <text class="SVGTextShape"><tspan class="TextParagraph" font-family="Liberation Sans, sans-serif" font-size="353px" font-weight="400"><tspan class="TextPosition" x="8360" y="590"><tspan fill="rgb(0,0,0)" stroke="none" style="white-space: pre">cap</tspan></tspan></tspan></text>
</svg>